<svg width="32" height="32" viewBox="0 0 32 32" fill="none" xmlns="http://www.w3.org/2000/svg">
<path fill-rule="evenodd" clip-rule="evenodd" d="M11.0029 0.0790667C7.3154 0.559805 4.13907 2.5223 2.06582 5.60089C0.56504 7.82938 -0.207783 10.8811 0.048448 13.5665C0.5305 18.6177 3.80394 22.7638 8.56257 24.3504C11.6487 25.3792 14.9137 25.1813 17.9036 23.7838L18.3908 23.5561L22.2836 27.4348C25.8091 30.9474 26.2179 31.3347 26.6145 31.5385C28.14 32.3224 29.7719 32.093 30.9334 30.9315C32.0949 29.77 32.3243 28.1381 31.5403 26.6126C31.3365 26.216 30.9494 25.8075 27.4389 22.2841L23.5626 18.3935L23.8508 17.7477C24.6666 15.9196 24.9847 14.4476 24.9841 12.5027C24.9838 11.2614 24.9005 10.5482 24.6298 9.46819C23.5403 5.12134 20.1927 1.66839 15.8981 0.461692C14.4359 0.0508469 12.425 -0.106333 11.0029 0.0790667ZM13.537 1.52253C14.2239 1.57221 15.166 1.76906 15.9209 2.0206C19.2416 3.12712 21.8797 5.76883 22.9815 9.09083C23.3867 10.3127 23.486 10.9904 23.4855 12.534C23.4852 13.6015 23.4603 14.0329 23.3745 14.455C22.889 16.8466 21.9348 18.6575 20.297 20.2952C18.6593 21.9329 16.8485 22.8871 14.4569 23.3727C14.0347 23.4584 13.6033 23.4833 12.5359 23.4836C11.3286 23.484 11.0708 23.4657 10.4397 23.3352C8.25766 22.8839 6.46542 21.9438 4.87904 20.4185C2.48649 18.1183 1.28217 15.0202 1.49773 11.7206C1.85383 6.26984 6.23916 1.86887 11.6912 1.49081C12.3353 1.44613 12.5257 1.44939 13.537 1.52253ZM12.1237 4.39889C12.0347 4.44726 11.8517 4.67783 11.717 4.91129C11.3602 5.52975 10.7944 6.06317 10.1715 6.36846C9.30811 6.79163 8.54349 6.93073 7.07024 6.9326L6.10976 6.93385L5.90559 7.13803C5.72614 7.31748 5.69091 7.41021 5.61463 7.90453C5.48586 8.73905 5.50144 11.0489 5.64104 11.8144C5.92549 13.374 6.33759 14.5505 7.05979 15.8645C7.953 17.4896 9.4952 19.1047 11.0342 20.0267C11.6227 20.3793 12.3282 20.6996 12.516 20.6996C12.6103 20.6996 12.9913 20.5442 13.3625 20.3542C17.2279 18.3766 19.6918 13.9388 19.4933 9.31158C19.4734 8.84698 19.4259 8.25568 19.3877 7.99757C19.2368 6.97847 19.1757 6.93398 17.9242 6.93348C15.9595 6.93273 14.7875 6.57688 13.9068 5.71371C13.6961 5.50722 13.4328 5.17684 13.3216 4.97949C12.9677 4.3514 12.5677 4.15749 12.1237 4.39889ZM13.5057 7.35146C14.4688 8.00633 15.5948 8.33765 17.1144 8.41336L17.9387 8.45441L17.9836 8.99253C18.1578 11.0784 17.6399 13.4077 16.5994 15.2182C15.7444 16.7059 14.2541 18.1908 12.9055 18.8988L12.4622 19.1315L11.8453 18.7553C9.24097 17.1675 7.50499 14.4544 7.0917 11.3263C6.99565 10.5991 6.96762 9.24006 7.03808 8.72591L7.07787 8.43557H7.55592C9.41486 8.43557 11.1042 7.8347 12.1292 6.80896L12.4733 6.46457L12.8487 6.81228C13.0552 7.00356 13.3509 7.24621 13.5057 7.35146ZM14.7595 9.951C14.6748 9.9958 14.0413 10.7558 13.3517 11.6398C12.6621 12.5239 12.0776 13.2486 12.0529 13.2504C12.0282 13.2522 11.634 12.9201 11.1769 12.5126C10.7198 12.105 10.2844 11.739 10.2092 11.6992C9.67691 11.4171 9.02786 11.9866 9.19436 12.5897C9.24429 12.7706 9.49445 13.0253 10.5056 13.925C11.7883 15.0663 11.9898 15.195 12.3525 15.104C12.5805 15.0467 12.6575 14.9575 14.3794 12.7552C15.8004 10.9377 15.8209 10.9073 15.8209 10.6131C15.8209 10.2007 15.5893 9.93654 15.1932 9.89725C15.0305 9.88117 14.8491 9.90363 14.7595 9.951ZM30.3187 27.4886C30.4674 27.8073 30.4939 27.9445 30.4939 28.3959C30.4939 29.0323 30.3268 29.4544 29.9031 29.8882C29.4878 30.3134 29.0423 30.4921 28.3978 30.4921C27.4283 30.4921 27.6323 30.6579 23.4089 26.4371L19.7028 22.7332L20.3025 22.2639C20.9656 21.7449 21.882 20.8153 22.399 20.1374L22.7351 19.6967L26.4393 23.405C29.718 26.6872 30.1637 27.1563 30.3187 27.4886Z" fill="black"/>
</svg>
